<svg xmlns="http://www.w3.org/2000/svg" viewBox="0 0 100 40" width="80" height="32" fill="#000000">
  <path d="M22.05 28.28c-.98.95-2.05 1.88-3.08 1.88-1.07 0-1.4-.62-2.61-.62-1.22 0-1.58.6-2.61.64-1.03.04-2.26-1.01-3.24-1.97C8.5 26.28 7 22.11 7 18.03c0-4.14 2.7-6.33 5.35-6.33 1.41 0 2.59.85 3.39.85.8 0 2.1-.9 3.75-.9 1.72 0 3.27.62 4.29 2.13-3.48 1.69-2.92 6.58.62 8.01-1.03 2.53-2.35 4.54-3.35 5.49zM17.03 11.25c.78-.95 1.25-2.24 1.05-3.25-.97.04-2.22.68-2.92 1.5-.6.7-1.15 2-1 3.01 1.07.08 2.2-.49 2.87-1.26z" />
  <text x="32" y="27" font-family="system-ui, -apple-system, sans-serif" font-weight="700" font-size="20" letter-spacing="-0.5">Pay</text>
</svg>
