<svg xmlns="http://www.w3.org/2000/svg" viewBox="0 0 24 24" width="48" height="48" fill="#F7931A">
  <path d="M23.6 12.6c0-6.4-5.2-11.6-11.6-11.6S.4 6.2.4 12.6s5.2 11.6 11.6 11.6 11.6-5.2 11.6-11.6z" />
  <path d="M16.2 9.5c.2-1.5-1-2.3-2.6-2.9l.5-2.1-1.3-.3-.5 2.1c-.3-.1-.7-.2-1.1-.3l.5-2.1-1.3-.3-.5 2.1c-.3 0-.6-.1-.9-.1l-1.8-.4-.3 1.4s1 .2 1 .2c.5.1.8.4.8.7l-.8 3.2c0 0-.1.5-.5.4-.1 0-.9-.2-.9-.2L7 14.5l1.7.4c.3.1.6.2.9.2l-.5 2.1 1.3.3.5-2.1c.4.1.7.2 1 .2l-.5 2.1 1.3.3.5-2.1c2.3.4 4-1 4.7-3.1.6-1.7-.1-2.7-1.3-3.3.9-.2 1.5-.8 1.7-2.1zm-3 4.6c-.4 1.7-3.2.8-4.1.6l.7-2.9c.9.2 3.8.7 3.4 2.3zm.4-4.7c-.4 1.5-2.7.7-3.5.5l.7-2.7c.8.2 3.2.6 2.8 2.2z" fill="white" />
</svg>
